<mxfile host="app.diagrams.net" modified="2020-09-03T02:30:30.448Z" agent="5.0 (Macintosh; Intel Mac OS X 10_15_6) AppleWebKit/537.36 (KHTML, like Gecko) Chrome/85.0.4183.83 Safari/537.36" etag="UvJPriBHtanDuhNrGJf4" version="13.6.6" type="github" pages="2">
  <diagram name="Page-1" id="74e2e168-ea6b-b213-b513-2b3c1d86103e">
    <mxGraphModel dx="1186" dy="718" grid="1" gridSize="10" guides="1" tooltips="1" connect="1" arrows="1" fold="1" page="1" pageScale="1" pageWidth="1100" pageHeight="850" background="#ffffff" math="0" shadow="0">
      <root>
        <mxCell id="0" />
        <mxCell id="1" parent="0" />
        <mxCell id="77e6c97f196da883-1" value="云药房方案1" style="swimlane;html=1;childLayout=stackLayout;startSize=20;rounded=0;shadow=0;labelBackgroundColor=none;strokeWidth=1;fontFamily=Verdana;fontSize=8;align=center;" parent="1" vertex="1">
          <mxGeometry x="70" y="30" width="960" height="790" as="geometry" />
        </mxCell>
        <mxCell id="77e6c97f196da883-2" value="HIS" style="swimlane;html=1;startSize=20;" parent="77e6c97f196da883-1" vertex="1">
          <mxGeometry y="20" width="160" height="770" as="geometry">
            <mxRectangle y="20" width="30" height="730" as="alternateBounds" />
          </mxGeometry>
        </mxCell>
        <mxCell id="u5-p-G08B1uQsJCF8gnc-2" value="" style="rounded=1;whiteSpace=wrap;html=1;shadow=0;labelBackgroundColor=none;strokeWidth=1;fontFamily=Verdana;fontSize=8;align=center;" vertex="1" parent="77e6c97f196da883-2">
          <mxGeometry x="30" y="40" width="100" height="60" as="geometry" />
        </mxCell>
        <mxCell id="77e6c97f196da883-3" value="处方平台" style="swimlane;html=1;startSize=20;" parent="77e6c97f196da883-1" vertex="1">
          <mxGeometry x="160" y="20" width="160" height="770" as="geometry" />
        </mxCell>
        <mxCell id="77e6c97f196da883-4" value="审方平台" style="swimlane;html=1;startSize=20;" parent="77e6c97f196da883-1" vertex="1">
          <mxGeometry x="320" y="20" width="160" height="770" as="geometry" />
        </mxCell>
        <mxCell id="77e6c97f196da883-5" value="订单平台" style="swimlane;html=1;startSize=20;" parent="77e6c97f196da883-1" vertex="1">
          <mxGeometry x="480" y="20" width="160" height="770" as="geometry" />
        </mxCell>
        <mxCell id="77e6c97f196da883-6" value="云药房平台" style="swimlane;html=1;startSize=20;" parent="77e6c97f196da883-1" vertex="1">
          <mxGeometry x="640" y="20" width="160" height="770" as="geometry" />
        </mxCell>
        <mxCell id="77e6c97f196da883-7" value="物流平台" style="swimlane;html=1;startSize=20;" parent="77e6c97f196da883-1" vertex="1">
          <mxGeometry x="800" y="20" width="160" height="770" as="geometry" />
        </mxCell>
        <mxCell id="77e6c97f196da883-8" value="" style="rounded=1;whiteSpace=wrap;html=1;shadow=0;labelBackgroundColor=none;strokeWidth=1;fontFamily=Verdana;fontSize=8;align=center;" parent="77e6c97f196da883-7" vertex="1">
          <mxGeometry x="30" y="180" width="100" height="60" as="geometry" />
        </mxCell>
        <mxCell id="u5-p-G08B1uQsJCF8gnc-1" value="" style="rhombus;whiteSpace=wrap;html=1;rounded=0;shadow=0;labelBackgroundColor=none;strokeWidth=1;fontFamily=Verdana;fontSize=8;align=center;" vertex="1" parent="77e6c97f196da883-7">
          <mxGeometry x="30" y="95" width="80" height="60" as="geometry" />
        </mxCell>
      </root>
    </mxGraphModel>
  </diagram>
  <diagram id="p84tSxE2KSRWnRdwE1Py" name="第 2 页">
    <mxGraphModel dx="1186" dy="718" grid="1" gridSize="10" guides="1" tooltips="1" connect="1" arrows="1" fold="1" page="1" pageScale="1" pageWidth="827" pageHeight="1169" math="0" shadow="0">
      <root>
        <mxCell id="RDzAwzeQMqQq3uezDS0O-0" />
        <mxCell id="RDzAwzeQMqQq3uezDS0O-1" parent="RDzAwzeQMqQq3uezDS0O-0" />
      </root>
    </mxGraphModel>
  </diagram>
</mxfile>
